<svg width="20" height="20" viewBox="0 0 20 20" fill="none" xmlns="http://www.w3.org/2000/svg">
<path fill-rule="evenodd" clip-rule="evenodd" d="M9.99997 1.6001C10.6627 1.6001 11.2 2.13736 11.2 2.8001V8.8001H17.2C17.8627 8.8001 18.4 9.3374 18.4 10.0001C18.4 10.6628 17.8627 11.2001 17.2 11.2001H11.2V17.2001C11.2 17.8628 10.6627 18.4001 9.99997 18.4001C9.33727 18.4001 8.79997 17.8628 8.79997 17.2001V11.2001H2.79998C2.13723 11.2001 1.59998 10.6628 1.59998 10.0001C1.59998 9.3374 2.13723 8.8001 2.79998 8.8001H8.79997V2.8001C8.79997 2.13736 9.33727 1.6001 9.99997 1.6001Z" fill="#363636"/>
</svg>
