<svg width="32" height="32" viewBox="0 0 32 32" fill="none" xmlns="http://www.w3.org/2000/svg">
<path d="M29.75 14.75H17.25V2.25C17.25 1.91848 17.1183 1.60054 16.8839 1.36612C16.6495 1.1317 16.3315 1 16 1V1C15.6685 1 15.3505 1.1317 15.1161 1.36612C14.8817 1.60054 14.75 1.91848 14.75 2.25V14.75H2.25C1.91848 14.75 1.60054 14.8817 1.36612 15.1161C1.1317 15.3505 1 15.6685 1 16H1C1 16.3315 1.1317 16.6495 1.36612 16.8839C1.60054 17.1183 1.91848 17.25 2.25 17.25H14.75V29.75C14.75 30.0815 14.8817 30.3995 15.1161 30.6339C15.3505 30.8683 15.6685 31 16 31C16.3315 31 16.6495 30.8683 16.8839 30.6339C17.1183 30.3995 17.25 30.0815 17.25 29.75V17.25H29.75C30.0815 17.25 30.3995 17.1183 30.6339 16.8839C30.8683 16.6495 31 16.3315 31 16C31 15.6685 30.8683 15.3505 30.6339 15.1161C30.3995 14.8817 30.0815 14.75 29.75 14.75Z" fill="current"/>
</svg>
